<svg xmlns="http://www.w3.org/2000/svg" viewBox="0 0 380 220" class="design-iconfont">
  <g fill="#F6F6F8" fill-rule="nonzero">
    <path d="M127.253354 0L230 0 102.928177 220 0 220z"/>
    <path d="M267.130723,0.00175219681 C329.466704,0.00175219681 380,49.2500375 380,110.000876 C380,170.751715 329.466704,220 267.130723,220 L138.40378,220 C135.572673,220 132.765912,219.898416 129.987124,219.698784 L183.930411,129.091 L267.130723,129.091633 C277.949365,129.091633 286.719606,120.54441 286.719606,110.000876 C286.719606,99.4573421 277.949365,90.9101191 267.130723,90.9101191 L206.661411,90.91 L260.785411,0.001 L267.130723,0.00175219681 Z"/>
    <path transform="matrix(1 0 0 -1 0 90)" d="M50.0881834 0L100 90 0 90z"/>
  </g>
</svg>
