<svg xmlns="http://www.w3.org/2000/svg" viewBox="0 0 62 63" class="design-iconfont">
  <path d="M22.3027582,0.257855075 C22.9634496,0.789747937 22.5601705,1.39139724 22.3027582,1.90585099 C20.9804116,4.77439293 19.8061615,7.71105731 18.7847911,10.7038821 L18.6646653,11.0701034 C17.8066246,14.2788997 16.8112973,17.7667218 15.9017741,21.2545438 C14.8120623,25.3527347 13.7652525,29.4334865 13.0959807,33.6275925 C12.6841212,36.0603484 11.9719473,39.0424363 11.8260804,41.4751921 C12.1178142,41.3705575 13.1989456,40.3765282 14.6404541,39.4173771 C17.0343879,37.812979 19.8745028,35.7290053 21.9252203,34.578024 C22.8402042,33.9943397 23.8347504,33.5507005 24.8768806,33.2613712 C25.1837231,33.1600947 25.520535,33.2422881 25.7486628,33.4741154 C25.9767905,33.7059426 26.0576723,34.0482166 25.9580119,34.3600352 C25.7739187,35.3674072 25.4073258,36.331275 24.8768806,37.2026101 C24.2261507,38.0356529 23.734346,38.9849397 23.4267916,40.0015873 L23.3990177,40.0700075 C23.2822974,40.3578241 23.1000734,40.8112303 22.9240574,41.2848304 L22.8368987,41.5226401 C22.4213416,42.6736806 22.1118442,43.8011335 22.9205476,42.8528819 C23.3283796,42.4037125 23.6852738,41.9094122 23.9845181,41.379277 C24.3792169,40.9432993 24.6194683,40.7601886 24.9026218,41.300801 C25.4174462,42.3035499 22.9634496,46.3407039 21.0843403,47.2126594 C20.509453,47.4742461 20.2091387,47.4306483 19.8830832,46.9946705 C19.6097821,46.6817365 19.4441316,46.2869101 19.4111608,45.8698479 C19.5633891,44.9195668 20.1070615,43.4206068 20.6361303,41.922179 L20.7865447,41.4945456 L20.9261951,41.092627 C21.7297914,38.7602915 22.3100432,36.6822729 21.0757599,37.0107799 C19.9317056,37.2898057 17.5406319,39.1112239 15.2347268,41.1909992 L14.7047131,41.6749492 C13.7380164,42.5684558 12.8049069,43.4905273 12.0062689,44.3439258 L11.0023612,45.5123462 C10.9422984,47.8579065 10.2215441,50.1249908 10.0156143,52.4879903 C9.78394334,55.1823328 9.39782499,57.8592362 9.34634255,60.5797374 C9.32918173,61.4429734 9.62091559,62.5939547 8.57410585,62.960176 C7.33852713,63.3874342 5.71683007,60.2483943 5.31355091,59.6816232 C4.29248239,57.9377122 3.94068567,56.2809967 3.0826449,54.5370857 C2.748009,53.8220822 2.70510696,52.8542116 2.22460412,52.1828058 C1.89269323,51.4786162 1.72810963,50.7050728 1.74410129,49.9244411 C1.88448629,49.0384374 5.772371,46.0769575 7.397511,44.7870298 L7.68218538,44.5592453 C7.80878115,44.4567956 7.91055432,44.3722643 7.98205772,44.3090476 C8.29549496,44.0182247 8.68348378,43.636978 8.97923802,43.3425613 L9.30427707,43.0170218 C9.35249641,42.9684294 9.38888558,42.9316136 9.41028182,42.9099358 L9.43214662,42.8877601 C9.43214662,42.8877601 9.62091559,41.8762917 9.7410413,40.8909819 C9.86116701,39.9056722 9.47504866,40.3939673 9.00312624,40.8909819 C7.83619078,42.1117197 6.90950675,43.5766049 5.57096314,44.7799035 C5.31355091,44.8932578 4.97891501,44.7799035 4.71292237,44.7799035 C3.44302202,44.0823391 3.34863754,43.4283725 3.76907752,42.0158046 C4.10499766,40.691221 4.37136639,39.3494215 4.56705544,37.9960896 C4.68718114,36.6881564 4.82446767,35.3802231 4.90169134,34.0722898 C4.96207294,33.4496892 4.93607765,32.8215551 4.82446767,32.206305 C4.72914186,31.6582669 4.40925951,31.1771586 3.94448364,30.8827944 C3.47970777,30.5884303 2.91377773,30.5085125 2.38763187,30.6629438 C1.99638943,30.7755067 1.59784979,30.8600037 1.19495519,30.9158109 C0.69586675,30.9597796 0.229151929,30.6602321 0.0537609654,30.1833683 C-0.0886546155,29.7687337 0.0587999938,29.3084928 0.41413809,29.0585456 C1.5381715,28.2650661 2.77375022,27.5762213 4.1895175,27.8988448 C5.65710192,28.179499 6.77768079,29.3922866 6.96098919,30.8983718 C7.24043959,32.0230138 7.40151131,33.1746462 7.44149203,34.3338765 C7.43012152,35.8346869 7.26913164,37.3304642 6.96098919,38.7982887 C6.98673042,39.5132922 7.75038671,38.7459714 8.00779894,38.362311 C10.1420963,35.1431545 11.5674426,31.4937466 12.1864575,27.6634168 C12.2465204,27.3233542 12.3323244,26.9920111 12.4095481,26.6519484 C13.1474632,23.9488863 13.8682174,21.2458243 14.6232933,18.5514817 C14.8978664,17.566172 15.9961585,13.3284682 15.9961585,12.7704167 C16.1637235,11.6873955 16.4279461,10.6221216 16.7855561,9.58777906 C17.4666526,7.63382006 18.0395761,5.64264632 18.5016376,3.62360335 C18.8704674,2.42836894 19.5491986,1.35611232 20.466551,0.519441729 C20.910476,-0.0541794363 21.7207337,-0.169609011 22.3027582,0.257855075 Z M8.59984707,46.8987554 C7.09060004,47.9386281 5.66985146,49.1053261 4.35254524,50.3865775 C3.98640081,50.8604284 3.90721463,51.5008382 4.14661546,52.0520125 C4.93941186,53.4919697 5.86449793,54.8524698 6.90950675,56.1153252 C6.90950675,56.1120554 6.93846562,56.0339881 6.97466422,55.9376813 L7.05027906,55.7375062 C7.08647766,55.6420168 7.11543653,55.5659932 7.11543653,55.5659932 C7.91341445,54.0749493 7.81044956,52.3571969 8.08502261,50.7527988 C8.14508546,50.3778579 8.20514832,49.9244411 8.27379158,49.5059024 C8.34243484,49.0088878 8.57410585,47.4044896 8.59984707,46.8987554 Z M34.4830958,19.3193305 C34.759006,19.5669899 34.9168151,19.9216015 34.9168151,20.2939381 C34.9168151,20.6662746 34.759006,21.0208863 34.4830958,21.2685456 C33.7076435,22.0156016 33.6394719,22.3419019 33.0855774,23.7329716 C31.858488,26.8328246 31.2449434,30.1473488 30.392798,33.3588309 C30.0519398,34.9388113 29.7139222,36.5187918 29.378745,38.0987723 C29.285009,38.5624622 29.1997944,39.0261521 29.1145799,39.489842 C28.9271079,40.5116772 29.5150882,40.7778696 30.3672336,40.7778696 C31.4936376,39.9174361 32.4897314,38.8963422 33.3241781,37.7467114 C35.1392478,35.7116279 36.0936506,34.2261028 37.7979414,32.5087327 C38.0612212,32.1380139 38.4644198,31.8929484 38.912649,31.8312095 C39.3608782,31.7694705 39.8145527,31.8965106 40.1669056,32.1824324 C41.2917375,32.7491645 39.9027405,34.2175159 39.4511035,34.7584875 C38.2240141,36.2010783 38.6756512,35.6686936 37.1503109,37.3345426 C35.9147001,38.6483307 34.2700595,40.5374378 32.889584,41.902747 C35.563419,41.6385781 38.2111576,41.1532155 40.8060146,40.4515693 C41.1980015,40.3313534 41.9138036,39.9535319 41.9649324,40.3313534 C42.0116892,40.6674597 42.0116892,41.0084954 41.9649324,41.3446017 C41.9388092,41.7207547 41.8404097,42.0882104 41.6752029,42.4265448 C41.6329507,42.4833135 41.5973493,42.5534858 41.5637999,42.6299411 C42.4227199,41.7688444 43.3244683,40.9511987 44.2642528,40.1790218 L44.1852597,40.0071002 C43.6951792,39.0951447 42.5077557,39.2100557 41.8650638,38.736567 C41.1845666,38.235226 40.0591289,38.0681124 40.3121343,36.8455441 C40.4778964,36.0451576 41.167118,35.9923849 42.8160151,36.5728849 C42.94688,36.6168622 43.0864691,36.6608395 43.2086097,36.7136122 C47.1171066,38.3935443 48.3734092,35.2711575 48.6002416,35.1216347 C51.2437117,31.902498 54.5851276,31.3923615 58.3540353,32.597339 C59.1479488,32.8612026 59.880792,33.2394072 59.880792,34.2948619 C60.125073,36.0891349 59.1741218,37.1885668 57.752057,37.9977487 C56.3643053,38.7893245 54.8221367,39.2665524 53.2328574,39.3962262 C52.0725224,39.4841808 50.9121874,39.7480444 49.743128,39.835999 C47.4399066,40.0031126 45.7037662,41.3839992 44.3078744,42.905613 C42.9119827,44.4272268 40.7047288,46.4237953 41.3154315,47.3473181 C43.1824367,48.4731365 46.3755391,47.7870909 48.8357984,46.7140453 C53.328825,44.7702496 57.2460463,43.0375448 60.6049108,38.5518625 C61.5820351,37.250135 62.2712566,38.1032942 61.8961107,39.3874307 C61.0847486,42.0964311 58.9996353,43.7851586 56.8534517,45.297977 C53.1107169,47.8926364 49.0626308,49.7308866 44.3078744,49.9419776 C43.1421007,50.0887364 41.9584277,49.9561449 40.8530423,49.5549775 C39.6427709,49.2264343 38.8599132,48.0463317 39.0209344,46.7932044 C39.2128695,45.6058179 39.7276046,45.0165224 40.6000369,43.6268404 C40.686552,43.5337329 40.7735288,43.4410763 40.8609637,43.3488741 C40.7375855,43.337005 40.6177732,43.2879921 40.5162852,43.2079482 C37.61033,43.257275 34.7207621,43.6580001 31.9096168,44.4015204 C30.7558846,44.5787257 29.7824277,45.3601979 29.3531806,46.4537777 C28.985869,47.2595746 28.4373708,47.9680987 27.7511473,48.5232086 C27.4528964,48.8065747 27.1802099,49.132875 26.7115299,48.9439643 C26.2502026,48.7687167 25.9610911,48.3053963 26.0042492,47.8105 C26.1150281,45.972914 26.1405925,44.1181544 26.413279,42.3063289 C26.5306462,40.7402928 26.8692378,39.1991543 27.4188106,37.7295377 L27.5471483,37.0064981 C27.8350303,35.3159619 28.0568544,33.6057028 28.5265996,31.9677611 C29.1145799,29.9326776 29.6258671,27.9061809 30.0775042,25.83675 C30.4524482,24.0506851 31.5261513,22.4621178 31.781795,20.615945 C31.990653,20.1380813 32.2788297,19.6995949 32.6339404,19.3193305 C33.0344487,19.061725 33.9547657,18.7525984 34.4830958,19.3193305 Z M56.1380572,34.2069074 C55.9482159,34.269531 55.7577046,34.3300156 55.5669744,34.3894149 L54.9945784,34.5654107 C52.9920521,35.1773768 51.0151344,35.7858676 49.5860902,37.6107487 C52.3691494,37.4700214 54.8206843,36.7224077 56.565549,34.3476346 Z M25.6306108,26.7546639 C26.0141197,27.2539701 26.1071485,27.9446672 25.8713823,28.5422852 C25.5956719,29.3245886 24.9452908,29.8782576 24.1797532,29.9823679 C23.4142156,30.0864783 22.6581379,29.7240826 22.2132092,29.0397836 C21.9032052,28.4224486 21.9330948,27.6696041 22.2908775,27.0835188 C23.2461965,25.8186924 24.5743231,25.5994558 25.6306108,26.7546639 Z" fill="#202020" fill-rule="nonzero"/>
</svg>
